<?xml version="1.0" standalone="no"?>
<!DOCTYPE svg PUBLIC "-//W3C//DTD SVG 1.1//EN" "http://www.w3.org/Graphics/SVG/1.1/DTD/svg11.dtd" >
<svg xmlns="http://www.w3.org/2000/svg" xmlns:xlink="http://www.w3.org/1999/xlink" version="1.1" viewBox="-10 0 404 512">
  <g transform="matrix(1 0 0 -1 0 409)">
   <path fill="currentColor"
d="M169 -23q10 -9 23 -9v0v0q13 0 23 9l160 160v0q9 10 9 23t-9 23q-10 9 -23 9t-23 -9l-105 -106v0v307v0q0 14 -9 23t-23 9t-23 -9t-9 -23v-307v0l-105 106v0q-10 9 -23 9t-23 -9q-9 -10 -9 -23t9 -23l160 -160v0z" />
  </g>

</svg>
